{
  "accessors": [
    {
      "bufferView": 0,
      "componentType": 5125,
      "count": 19872,
      "type": "SCALAR"
    },
    {
      "bufferView": 1,
      "componentType": 5126,
      "count": 4090,
      "max": [
        0.0038922002667511335,
        0.08953221643906431,
        0.02801252641346502
      ],
      "min": [
        0.0033035284161900824,
        0.08894940395698078,
        -0.028689794886819008
      ],
      "type": "VEC3"
    },
    {
      "bufferView": 2,
      "componentType": 5126,
      "count": 4090,
      "max": [
        1.0,
        0.999992560626781,
        1.0
      ],
      "min": [
        -0.9999998407366703,
        -0.9999999999936293,
        -1.0
      ],
      "type": "VEC3"
    },
    {
      "bufferView": 3,
      "componentType": 5126,
      "count": 4090,
      "max": [
        0.09213651120041969,
        1.0
      ],
      "min": [
        0.0,
        0.0
      ],
      "type": "VEC2"
    },
    {
      "bufferView": 4,
      "componentType": 5125,
      "count": 10080,
      "type": "SCALAR"
    },
    {
      "bufferView": 5,
      "componentType": 5126,
      "count": 2098,
      "max": [
        0.04629474072416584,
        0.08156961908818516,
        0.02851761592269512
      ],
      "min": [
        -0.17591243042925261,
        0.0363858139849578,
        -0.028689794886819008
      ],
      "type": "VEC3"
    },
    {
      "bufferView": 6,
      "componentType": 5126,
      "count": 2098,
      "max": [
        0.9225841231160962,
        0.9999999252795291,
        1.0
      ],
      "min": [
        -0.9060684401814025,
        -0.999999775065102,
        -1.0
      ],
      "type": "VEC3"
    },
    {
      "bufferView": 7,
      "componentType": 5126,
      "count": 2098,
      "max": [
        1.0,
        0.8363644540162436
      ],
      "min": [
        0.0,
        0.0
      ],
      "type": "VEC2"
    },
    {
      "bufferView": 8,
      "componentType": 5125,
      "count": 13068,
      "type": "SCALAR"
    },
    {
      "bufferView": 9,
      "componentType": 5126,
      "count": 2711,
      "max": [
        0.17591243042925264,
        0.08399657495895535,
        0.028689794886819008
      ],
      "min": [
        0.024089656402505266,
        -0.13641508870807262,
        -0.028689794886819008
      ],
      "type": "VEC3"
    },
    {
      "bufferView": 10,
      "componentType": 5126,
      "count": 2711,
      "max": [
        0.9999939944073979,
        0.9999999636200243,
        1.0
      ],
      "min": [
        -0.9999429801887499,
        -0.9999999950026961,
        -1.0
      ],
      "type": "VEC3"
    },
    {
      "bufferView": 11,
      "componentType": 5126,
      "count": 2711,
      "max": [
        1.0,
        0.9654234995610882
      ],
      "min": [
        0.0,
        0.0
      ],
      "type": "VEC2"
    },
    {
      "bufferView": 12,
      "componentType": 5125,
      "count": 21180,
      "type": "SCALAR"
    },
    {
      "bufferView": 13,
      "componentType": 5126,
      "count": 4380,
      "max": [
        0.08619554101945542,
        0.13641508870807267,
        0.028634354323084924
      ],
      "min": [
        -0.16536380976130452,
        -0.13636783033730404,
        -0.028689794886819008
      ],
      "type": "VEC3"
    },
    {
      "bufferView": 14,
      "componentType": 5126,
      "count": 4380,
      "max": [
        0.9999959948884337,
        0.9999999993591081,
        1.0
      ],
      "min": [
        -0.9999954497352035,
        -0.9999999742715565,
        -1.0
      ],
      "type": "VEC3"
    },
    {
      "bufferView": 15,
      "componentType": 5126,
      "count": 4380,
      "max": [
        1.0,
        0.9465604325192539
      ],
      "min": [
        0.0,
        0.0
      ],
      "type": "VEC2"
    }
  ],
  "asset": {
    "generator": "Adobe Illustrator",
    "version": "2.0"
  },
  "bufferViews": [
    {
      "buffer": 0,
      "byteLength": 79488,
      "target": 34963
    },
    {
      "buffer": 0,
      "byteLength": 49080,
      "byteOffset": 79488,
      "target": 34962
    },
    {
      "buffer": 0,
      "byteLength": 49080,
      "byteOffset": 128568,
      "target": 34962
    },
    {
      "buffer": 0,
      "byteLength": 32720,
      "byteOffset": 177648,
      "target": 34962
    },
    {
      "buffer": 0,
      "byteLength": 40320,
      "byteOffset": 210368,
      "target": 34963
    },
    {
      "buffer": 0,
      "byteLength": 25176,
      "byteOffset": 250688,
      "target": 34962
    },
    {
      "buffer": 0,
      "byteLength": 25176,
      "byteOffset": 275864,
      "target": 34962
    },
    {
      "buffer": 0,
      "byteLength": 16784,
      "byteOffset": 301040,
      "target": 34962
    },
    {
      "buffer": 0,
      "byteLength": 52272,
      "byteOffset": 317824,
      "target": 34963
    },
    {
      "buffer": 0,
      "byteLength": 32532,
      "byteOffset": 370096,
      "target": 34962
    },
    {
      "buffer": 0,
      "byteLength": 32532,
      "byteOffset": 402628,
      "target": 34962
    },
    {
      "buffer": 0,
      "byteLength": 21688,
      "byteOffset": 435160,
      "target": 34962
    },
    {
      "buffer": 0,
      "byteLength": 84720,
      "byteOffset": 456848,
      "target": 34963
    },
    {
      "buffer": 0,
      "byteLength": 52560,
      "byteOffset": 541568,
      "target": 34962
    },
    {
      "buffer": 0,
      "byteLength": 52560,
      "byteOffset": 594128,
      "target": 34962
    },
    {
      "buffer": 0,
      "byteLength": 35040,
      "byteOffset": 646688,
      "target": 34962
    }
  ],
  "buffers": [
    {
      "byteLength": 681728,
      "uri": "data:application/octet-stream;base64,"
    }
  ],
  "materials": [
    {
      "doubleSided": true,
      "pbrMetallicRoughness": {
        "baseColorFactor": [
          0.1132812574505806,
          0.1132812574505806,
          0.1054687574505806,
          1.0
        ],
        "metallicFactor": 0.0,
        "roughnessFactor": 0.4000000059604645
      }
    },
    {
      "doubleSided": true,
      "pbrMetallicRoughness": {
        "baseColorFactor": [
          0.1015625074505806,
          0.36328125,
          0.5859375,
          1.0
        ],
        "metallicFactor": 0.0,
        "roughnessFactor": 0.4000000059604645
      }
    },
    {
      "doubleSided": true,
      "pbrMetallicRoughness": {
        "baseColorFactor": [
          0.1015625074505806,
          0.36328125,
          0.5859375,
          1.0
        ],
        "metallicFactor": 0.0,
        "roughnessFactor": 0.4000000059604645
      }
    },
    {
      "doubleSided": true,
      "pbrMetallicRoughness": {
        "baseColorFactor": [
          0.37109375,
          0.62109375,
          0.4453125,
          1.0
        ],
        "metallicFactor": 0.0,
        "roughnessFactor": 0.4000000059604645
      }
    }
  ],
  "meshes": [
    {
      "primitives": [
        {
          "attributes": {
            "NORMAL": 2,
            "POSITION": 1,
            "TEXCOORD_0": 3
          },
          "indices": 0,
          "material": 0,
          "mode": 4
        }
      ]
    },
    {
      "primitives": [
        {
          "attributes": {
            "NORMAL": 6,
            "POSITION": 5,
            "TEXCOORD_0": 7
          },
          "indices": 4,
          "material": 1,
          "mode": 4
        }
      ]
    },
    {
      "primitives": [
        {
          "attributes": {
            "NORMAL": 10,
            "POSITION": 9,
            "TEXCOORD_0": 11
          },
          "indices": 8,
          "material": 2,
          "mode": 4
        }
      ]
    },
    {
      "primitives": [
        {
          "attributes": {
            "NORMAL": 14,
            "POSITION": 13,
            "TEXCOORD_0": 15
          },
          "indices": 12,
          "material": 3,
          "mode": 4
        }
      ]
    }
  ],
  "nodes": [
    {
      "mesh": 0
    },
    {
      "mesh": 1
    },
    {
      "mesh": 2
    },
    {
      "mesh": 3
    }
  ],
  "scenes": [
    {
      "nodes": [
        0,
        1,
        2,
        3
      ]
    }
  ]
}
